# xmcd
#
# Track frame offsets:
#	150
#	20866
#	36986
#	58742
#	77028
#	95079
#	116676
#	131845
#	148947
#	166928
#	180233
#
# Disc length: 2619 seconds
#
# Revision: 5
# Processed by: cddbd v1.5.2PL0 Copyright (c) Steve Scherf et al.
# Submitted via: audiograbber 1.83.01
#
DISCID=9e0a390b
DTITLE=George Harrison - The Dark Horse Years 1976-1992 [CD 2) - George Harriso
DTITLE=n [remastered 2004]
DYEAR=1979
DGENRE=Rock
TTITLE0=Love Comes To Everyone
TTITLE1=Not Guilty
TTITLE2=Here Comes The Moon
TTITLE3=Soft-Hearted Hana
TTITLE4=Blow Away
TTITLE5=Faster
TTITLE6=Dark Sweet Lady
TTITLE7=Your Love Is Forever
TTITLE8=Soft Touch
TTITLE9=If You Believe
TTITLE10=Here Comes The Moon [demo version] [additional track]
EXTD=
EXTT0=
EXTT1=
EXTT2=
EXTT3=
EXTT4=
EXTT5=
EXTT6=
EXTT7=
EXTT8=
EXTT9=
EXTT10=
PLAYORDER=
